HIERARCHY
ROOT pelvis
{
  OFFSET 0 100 0
  CHANNELS 6 Xposition Yposition Zposition Zrotation Xrotation Yrotation
  JOINT pelvis_right_femur
  {
    OFFSET -10.78128 -3.44521 -0.5502486
    CHANNELS 3 Zrotation Xrotation Yrotation
    JOINT right_femur_tibia
    {
      OFFSET -0.8047443 -44.0398 -0.1307829
      CHANNELS 3 Zrotation Xrotation Yrotation
      JOINT right_tibia_foot
      {
        OFFSET 3.006224 -47.83518 -5
        CHANNELS 3 Zrotation Xrotation Yrotation
        End Site
        {
          OFFSET 0 -5 15
        }
      }
    }
  }
  JOINT pelvis_left_femur
  {
    OFFSET 10.78128 -3.44521 -0.5502486
    CHANNELS 3 Zrotation Xrotation Yrotation
    JOINT left_femur_tibia
    {
      OFFSET 0.8047443 -44.0398 -0.1307829
      CHANNELS 3 Zrotation Xrotation Yrotation
      JOINT left_tibia_foot
      {
        OFFSET -4.370144 -48.10324 -4.275266
        CHANNELS 3 Zrotation Xrotation Yrotation
        End Site
        {
          OFFSET 0 -5 15
        }
      }
    }
  }
  JOINT pelvis_spine1
  {
    OFFSET 0 6.468898 -3.129235
    CHANNELS 3 Zrotation Xrotation Yrotation
    JOINT spine1
    {
      OFFSET 0 23.15396 4.99043
      CHANNELS 3 Zrotation Xrotation Yrotation
      JOINT spine2
      {
        OFFSET 0 20.79997 -5.064912
        CHANNELS 3 Zrotation Xrotation Yrotation
        JOINT neck
        {
          OFFSET 0 14.38658 9.616178
          CHANNELS 3 Zrotation Xrotation Yrotation
          End Site
          {
            OFFSET 0 20 0
          }
        }
      }
      JOINT right_manubrium
      {
        OFFSET -5.722621 16.35077 3.967754
        CHANNELS 3 Zrotation Xrotation Yrotation
        JOINT right_clavicle
        {
          OFFSET -13.16364 1.694482 -4.693211
          CHANNELS 3 Zrotation Xrotation Yrotation
          JOINT right_humerus
          {
            OFFSET -28.5034 -0.3100689 -2.792744
            CHANNELS 3 Zrotation Xrotation Yrotation
            JOINT right_radius
            {
              OFFSET -25.15693 0.02248979 -1.271978
              CHANNELS 3 Zrotation Xrotation Yrotation
              End Site
              {
                OFFSET -15 0 0
              }
            }
          }
        }
      }
      JOINT left_manubrium
      {
        OFFSET 5.722621 16.35077 3.967754
        CHANNELS 3 Zrotation Xrotation Yrotation
        JOINT left_clavicle
        {
          OFFSET 13.16364 1.694482 -4.693211
          CHANNELS 3 Zrotation Xrotation Yrotation
          JOINT left_humerus
          {
            OFFSET 29.39168 -1.063119 -2.237045
            CHANNELS 3 Zrotation Xrotation Yrotation
            JOINT left_radius
            {
              OFFSET 24.59957 -0.9528479 0.9047498
              CHANNELS 3 Zrotation Xrotation Yrotation
              End Site
              {
                OFFSET 15 -0 -0
              }
            }
          }
        }
      }
    }
  }
}
MOTION
Frames: 15
Frame Time: 0.0416666666667
0 103.5113 0 1.690554 -1.64421 -0.1070196 4.313436 -14.32741 11.90865 -0 34.91355 -0 -2.433114 -17.78659 -4.184821 -7.697067 9.780912 -21.11498 -0 5.430172 -0 19.42805 -9.846659 29.61144 -2.721711 -2.238881 4.4235 3.136263 10.73138 -7.558263 1.67297 21.22573 6.846595 2.929461 -26.46593 10.43178 5.901352 -19.25517 11.63133 87.35378 37.63157 -19.76912 -0 0 13.26311 -6.534536 9.092662 4.29488 5.710801 -20.1836 -2.169361 -91.1312 22.04345 19.25235 0 0 -18.64262 14.30054 12.49386 -2.748584
0.5061047 102.9664 1.830008 1.451005 -0.7307026 -0.2290071 4.951869 -17.35775 11.9306 -0 34.77675 -0 -2.682914 -17.19036 -3.941261 -7.706203 10.47745 -21.31478 -0 5.728323 -0 19.39074 -10.80814 29.48029 -2.966735 -2.33519 4.37916 3.438746 10.7056 -7.684051 1.584724 21.13868 6.939663 2.754096 -26.99016 10.66811 5.825118 -19.61727 11.771 87.51055 38.12419 -19.92853 -0 0 13.22804 -5.957886 8.91181 4.406971 5.475125 -20.07221 -2.228326 -90.79869 22.06209 19.1878 0 0 -19.89515 14.76522 11.7682 -3.182427
0.9460224 102.4988 3.635653 1.094287 0.7709709 -0.2573746 5.914748 -21.45056 12.40269 -0 34.56216 -0 -2.617585 -16.68381 -3.701094 -7.703622 11.28733 -21.58257 -0 5.822394 -0 19.12956 -12.21545 29.25459 -2.739749 -2.044377 4.268395 3.465732 10.64649 -7.631872 1.543903 21.21627 6.865611 2.72986 -26.62314 10.39779 5.893907 -19.06482 11.83169 87.36321 37.84144 -19.91183 -0 0 12.43086 -6.268509 9.00763 4.801069 5.263371 -19.96687 -2.372893 -90.5106 22.17333 18.96089 0 0 -19.90738 14.0671 11.64095 -2.227908
1.323231 102.0308 5.567078 0.6800875 1.855148 -0.1886454 6.790574 -24.98676 12.24005 -0 33.38124 -0 -3.067158 -15.48419 -3.326784 -7.537285 11.84682 -21.43518 -0 6.345831 -0 18.57662 -13.49319 28.68857 -2.663454 -1.927443 4.190271 3.637422 10.60243 -7.702216 1.470433 21.20312 6.824981 2.627086 -26.61759 10.26901 5.90197 -18.85051 11.92887 87.34135 37.68752 -20.0828 -0 0 11.94072 -6.23161 8.9877 5.071817 5.012915 -19.88563 -2.491996 -90.28501 22.36739 18.91226 0 0 -20.3308 13.55487 11.29865 -1.489394
1.648686 101.5587 7.730442 0.2118794 2.927821 -0.02535387 7.651692 -28.40551 11.93112 -0 31.5541 -0 -3.585788 -13.96787 -2.905041 -7.297645 12.32838 -21.08576 -0 7.026168 -0 17.625 -14.88047 27.84509 -2.610689 -1.88445 4.145836 3.795059 10.58258 -7.796798 1.409927 21.16904 6.779336 2.535889 -26.6758 10.16511 5.904283 -18.74057 12.00661 87.34083 37.4884 -20.29059 -0 0 11.66825 -6.157721 8.95561 5.227022 4.811141 -19.84148 -2.580355 -90.21829 22.60323 19.00294 0 0 -20.59032 13.04227 11.06767 -0.7899015
1.935949 101.054 10.25702 -0.2658606 3.771758 0.2307423 8.350913 -31.26129 11.29999 -0 29.06907 -0 -4.284479 -12.0256 -2.423045 -6.990501 12.7287 -20.45914 -0 8.105174 -0 16.34538 -16.12151 26.6897 -2.576986 -1.864229 4.094483 3.990525 10.55485 -7.92332 1.333406 21.11933 6.735594 2.4283 -26.78512 10.05967 5.892465 -18.66489 12.09581 87.35641 37.27175 -20.54833 -0 0 11.41761 -6.056989 8.902939 5.389182 4.584843 -19.79877 -2.679362 -90.156 22.87484 19.12759 0 0 -20.91534 12.47208 10.79131 -0.02680928
2.196196 100.5175 13.26337 -0.7387726 4.386796 0.5817526 8.849231 -33.39431 10.41295 -0 26.21547 -0 -5.117615 -9.796644 -1.930814 -6.624497 13.12162 -19.63285 -0 9.71185 -0 14.57789 -17.16059 25.17178 -2.556545 -1.852479 4.036205 4.184219 10.51773 -8.054318 1.252141 21.06919 6.699281 2.32733 -26.89362 9.952487 5.869548 -18.60177 12.18006 87.37787 37.05908 -20.8034 -0 0 11.18916 -5.98774 8.848134 5.555208 4.370673 -19.76285 -2.779763 -90.08391 23.12743 19.23278 0 0 -21.24092 11.90943 10.51712 0.7054359
2.436955 99.97405 16.8414 -1.201621 4.654144 1.021943 9.114551 -34.48522 9.271135 -0 23.45332 -0 -6.115039 -7.458608 -1.479609 -6.173606 13.52917 -18.65006 -0 12.1087 -0 12.16978 -17.77999 23.193 -2.537306 -1.830701 3.959132 4.380064 10.4635 -8.192001 1.159741 21.0203 6.668253 2.232534 -26.97429 9.82182 5.833817 -18.51423 12.26192 87.40522 36.83149 -21.06545 -0 0 10.92336 -5.987166 8.800346 5.758097 4.15931 -19.73432 -2.893731 -89.95838 23.35475 19.27613 0 0 -21.59689 11.30962 10.22027 1.462284
2.664948 99.48911 21.03082 -1.671731 4.503369 1.523606 9.200736 -34.30019 7.967535 -0 21.37424 -0 -7.23213 -5.355589 -1.138341 -5.59732 13.87181 -17.55413 -0 15.55166 -0 9.006162 -17.69323 20.64889 -2.509413 -1.788546 3.863675 4.55625 10.39464 -8.325308 1.062152 20.97694 6.643466 2.156632 -26.99418 9.662463 5.787744 -18.38279 12.33207 87.44113 36.59165 -21.32149 -0 0 10.60813 -6.092758 8.777071 5.995948 3.972871 -19.724 -3.01804 -89.76002 23.52552 19.21627 0 0 -21.96323 10.69835 9.918818 2.208117
2.894438 99.16345 25.7999 -2.156607 3.943251 2.014411 9.199839 -32.74747 6.625647 -0 20.4108 -0 -8.34981 -3.90296 -0.9466159 -4.890161 13.86217 -16.32635 -0 20.29631 -0 5.335688 -16.51378 17.56634 -2.45948 -1.722348 3.756061 4.696341 10.32229 -8.450628 0.9660847 20.93931 6.619513 2.108364 -26.93493 9.466533 5.738854 -18.19753 12.38513 87.48984 36.31769 -21.57715 -0 0 10.25356 -6.324214 8.793172 6.25423 3.823278 -19.74244 -3.152753 -89.50802 23.64809 19.05866 0 0 -22.29867 10.05089 9.641354 2.972389
3.152405 99.11131 31.04697 -2.610966 3.129248 2.37664 9.154885 -29.9693 5.335925 -0 20.42528 -0 -9.314724 -3.356062 -0.874904 -4.13576 12.9963 -14.89306 -0 26.5476 -0 1.889252 -14.00931 14.23924 -2.369595 -1.624553 3.651966 4.767778 10.2683 -8.552396 0.8861029 20.91177 6.58961 2.102864 -26.768 9.230944 5.702311 -17.95179 12.41291 87.55213 35.99701 -21.81977 -0 0 9.887361 -6.698628 8.868744 6.504567 3.730244 -19.7999 -3.294535 -89.24066 23.72943 18.8205 0 0 -22.53303 9.362071 9.435855 3.766071
3.465682 99.41581 36.62653 -2.906413 2.265111 2.486814 8.99718 -26.24302 4.112989 -0 20.56697 -0 -10.06189 -3.548123 -0.8386511 -3.482584 10.76598 -13.22007 -0 34.33555 -0 -0.4922174 -10.47826 11.19874 -2.221772 -1.484101 3.572039 4.736113 10.2578 -8.610486 0.8366779 20.89992 6.546181 2.153734 -26.46123 8.95199 5.694539 -17.64252 12.41011 87.62353 35.62443 -22.02547 -0 0 9.540318 -7.230332 9.022624 6.724487 3.707563 -19.90256 -3.440852 -88.99742 23.77918 18.52814 0 0 -22.60414 8.626589 9.340548 4.607962
3.82971 100.0803 42.37727 -2.873482 1.385704 2.277019 8.617061 -21.79623 2.981961 -0 19.80049 -0 -10.64383 -3.995924 -0.8000549 -3.024949 7.043505 -11.44979 -0 43.17604 -0 -1.57637 -6.840252 9.020799 -2.008434 -1.291154 3.537799 4.574333 10.30827 -8.603487 0.8266118 20.90894 6.484674 2.266945 -25.98326 8.62837 5.722526 -17.27561 12.37511 87.69082 35.21527 -22.15302 -0 0 9.23796 -7.934243 9.26651 6.913521 3.762371 -20.05133 -3.585265 -88.78946 23.78612 18.1935 0 0 -22.49279 7.868506 9.360187 5.485713
4.194021 101.0023 48.13286 -2.418894 0.2912911 1.775395 7.980868 -16.76425 2.051083 -0 17.74767 -0 -11.08622 -4.390657 -0.8102185 -2.730043 2.238916 -9.858198 -0 51.74775 -0 -1.916009 -4.129705 8.118058 -1.742371 -1.04822 3.56957 4.274166 10.42339 -8.51543 0.8555663 20.94289 6.402372 2.434379 -25.32073 8.262459 5.778739 -16.87919 12.31278 87.72326 34.79332 -22.14324 -0 0 9.021668 -8.821055 9.594256 7.097076 3.885847 -20.23384 -3.716354 -88.61883 23.73677 17.84035 0 0 -22.20551 7.115228 9.470766 6.377222
4.495972 101.9865 53.73735 -1.617591 -1.185286 1.109549 7.163916 -11.33811 1.416116 -0 14.88411 -0 -11.27758 -4.83608 -0.8944091 -2.474201 -3.02774 -8.593657 -0 58.10455 -0 -2.189269 -2.85677 8.50383 -1.455294 -0.7722989 3.689124 3.841374 10.5941 -8.332726 0.9167733 21.00675 6.29662 2.636948 -24.48076 7.86004 5.844492 -16.50759 12.2335 87.66468 34.3804 -21.91082 -0 0 8.969881 -9.900441 9.980339 7.319764 4.053522 -20.41947 -3.817553 -88.50697 23.63497 17.53098 0 0 -21.73536 6.372553 9.642789 7.275124
